<svg xmlns="http://www.w3.org/2000/svg" width="200" height="200" viewBox="0 0 200 200"><path fill="url('#a')" d="M0 0h200v200H0z"/><defs><linearGradient id="a" gradientTransform="rotate(45 .5 .5)"><stop offset="0%" stop-color="#fff"/><stop offset="100%" stop-color="#fff"/></linearGradient></defs><path d="M14.883 95.134v6.365h3.281v1.451h-5.167v-7.816zm3.77 5.167-.005-.308q0-.869.335-1.55.341-.676.973-1.044.632-.363 1.49-.363 1.303 0 2.056.808.747.808.747 2.198v.06q0 1.359-.753 2.161-.753.797-2.04.797-1.241 0-1.994-.747-.753-.742-.808-2.012m1.809-.522-.006.324q0 .808.253 1.182.253.379.748.379.962 0 .984-1.49v-.181q0-1.561-.995-1.561-.907 0-.984 1.347m7.041 1.885q.38 0 .594-.209.209-.209.203-.577h1.693q0 .956-.681 1.567-.687.615-1.765.615-1.27 0-1.995-.797-.731-.797-.731-2.199v-.077q0-.879.324-1.555.324-.67.935-1.033.615-.363 1.45-.363 1.133 0 1.798.626.665.627.665 1.704H28.3q0-.45-.22-.692t-.593-.242q-.704 0-.82.896-.038.286-.038.78 0 .88.21 1.215.208.341.664.341m8.339 1.286h-1.809q-.099-.176-.176-.522-.494.632-1.396.632-.819 0-1.39-.5-.578-.495-.578-1.248 0-.945.699-1.429.698-.484 2.028-.484h.56v-.302q0-.803-.692-.803-.643 0-.643.638H30.63q0-.846.72-1.369.715-.527 1.825-.527t1.759.538q.643.545.66 1.49v2.572q.01.798.247 1.22zm-2.941-1.182q.335 0 .56-.143.22-.148.32-.33v-.928h-.528q-.946 0-.946.852 0 .242.165.395.17.154.429.154m5.601-7.063v8.245h-1.814v-8.245zm7.965 6.167q0-.412-.291-.643-.292-.23-1.028-.478-.737-.247-1.204-.478-1.517-.748-1.517-2.05 0-.649.38-1.144.378-.5 1.071-.775t1.556-.275q.84 0 1.511.297.665.303 1.039.858.368.555.368 1.27h-1.88q0-.479-.29-.743-.292-.263-.792-.263-.506 0-.797.225-.292.22-.292.566 0 .302.319.544.324.242 1.132.506.814.258 1.336.56 1.264.732 1.264 2.012 0 1.028-.775 1.611-.77.588-2.116.588-.95 0-1.72-.34-.77-.341-1.16-.935t-.39-1.369h1.89q0 .627.325.93.324.296 1.055.296.467 0 .737-.203t.269-.567m5.58 2.188q-1.337 0-2.167-.797-.824-.802-.824-2.078v-.148q0-.89.33-1.572t.962-1.055q.637-.374 1.506-.374 1.22 0 1.929.758.71.759.71 2.117v.703h-3.596q.1.49.424.77.33.28.846.28.863 0 1.347-.605l.824.979q-.34.467-.956.742-.621.28-1.336.28m-.204-4.628q-.797 0-.946 1.05h1.825v-.138q.011-.434-.22-.676-.23-.236-.66-.236m6.926-1.33-.033 1.676-.6-.044q-.852 0-1.093.539v3.677h-1.809v-5.81h1.699l.055.748q.456-.852 1.275-.852.291 0 .506.066m2.127.038.901 3.655.918-3.655h1.908l-1.897 5.81H60.88l-1.89-5.81zm6.173 0v5.81h-1.814v-5.81zm-1.919-1.495q0-.385.28-.632.275-.247.72-.247.446 0 .726.247t.28.632-.28.632q-.28.248-.725.248-.446 0-.72-.248-.28-.247-.28-.632m5.491 6.019q.38 0 .589-.209t.203-.577h1.698q0 .956-.687 1.567-.681.615-1.759.615-1.27 0-2-.797-.731-.797-.731-2.199v-.077q0-.879.33-1.555.324-.67.934-1.033t1.45-.363q1.133 0 1.798.626.665.627.665 1.704h-1.698q0-.45-.22-.692t-.588-.242q-.704 0-.825.896-.033.286-.033.78 0 .88.21 1.215.208.341.664.341m6.063 1.396q-1.335 0-2.16-.797-.83-.802-.83-2.078v-.148q0-.89.33-1.572t.967-1.055q.632-.374 1.501-.374 1.226 0 1.935.758.709.759.709 2.117v.703h-3.6q.098.49.423.77.33.28.852.28.857 0 1.341-.605l.824.979q-.335.467-.956.742-.621.28-1.336.28m-.203-4.628q-.792 0-.945 1.05h1.824v-.138q.011-.434-.22-.676-.23-.236-.659-.236m6.2-3.298h2.474l1.748 5.436 1.737-5.436h2.479v7.816h-1.891v-1.825l.187-3.737-1.891 5.562h-1.248l-1.89-5.568.18 3.743v1.825H82.7zm14.633 7.816h-1.809q-.093-.176-.17-.522-.5.632-1.396.632-.82 0-1.397-.5-.571-.495-.571-1.248 0-.945.692-1.429.698-.484 2.034-.484h.555v-.302q0-.803-.692-.803-.643 0-.643.638h-1.809q0-.846.715-1.369.72-.527 1.83-.527t1.754.538q.643.545.66 1.49v2.572q.01.798.247 1.22zm-2.941-1.182q.34 0 .56-.143.226-.148.32-.33v-.928h-.528q-.94 0-.94.852 0 .242.165.395.164.154.423.154m3.66-4.628h1.7l.054.682q.605-.786 1.66-.786.907 0 1.358.538.445.545.461 1.633v3.743h-1.813v-3.666q0-.44-.176-.649-.176-.203-.643-.203-.534 0-.792.418v4.1h-1.808zm11.318 5.81h-1.808q-.099-.176-.176-.522-.5.632-1.396.632-.82 0-1.396-.5-.572-.495-.572-1.248 0-.945.698-1.429t2.028-.484h.561v-.302q0-.803-.693-.803-.648 0-.648.638h-1.809q0-.846.72-1.369.715-.527 1.825-.527t1.76.538q.642.545.659 1.49v2.572q.011.798.247 1.22zm-2.946-1.182q.34 0 .566-.143.22-.148.319-.33v-.928h-.528q-.945 0-.945.852 0 .242.165.395.17.154.423.154m3.485-1.698v-.066q0-.88.291-1.556.292-.676.83-1.044.544-.368 1.265-.368.907 0 1.418.61l.06-.506h1.644v5.59q0 .77-.358 1.336-.357.566-1.033.869-.676.302-1.567.302-.637 0-1.236-.242-.6-.242-.913-.627l.753-1.066q.506.6 1.33.6 1.204 0 1.204-1.238v-.181q-.522.577-1.313.577-1.061 0-1.72-.813-.655-.814-.655-2.177m1.814.044q0 .714.27 1.132.269.418.752.418.583 0 .852-.396v-2.44q-.264-.396-.84-.396-.484 0-.76.429-.274.434-.274 1.253m7.53 2.946q-1.335 0-2.16-.797-.824-.802-.824-2.078v-.148q0-.89.33-1.572t.961-1.055 1.501-.374q1.226 0 1.935.758.709.759.709 2.117v.703h-3.6q.099.49.428.77.325.28.847.28.857 0 1.341-.605l.825.979q-.336.467-.957.742-.621.28-1.336.28m-.203-4.628q-.792 0-.945 1.05h1.83v-.138q.005-.434-.225-.676-.231-.236-.66-.236m3.397-1.292h1.693l.06.682q.616-.786 1.66-.786 1.1 0 1.485.874.593-.874 1.709-.874 1.764 0 1.814 2.132v3.782h-1.814v-3.666q0-.445-.154-.649-.148-.203-.544-.203-.539 0-.803.478l.006.072v3.968h-1.814v-3.655q0-.456-.143-.66-.148-.203-.555-.203-.522 0-.792.478v4.04h-1.808zm12.263 5.92q-1.336 0-2.166-.797-.824-.802-.824-2.078v-.148q0-.89.33-1.572t.962-1.055q.637-.374 1.506-.374 1.226 0 1.93.758.708.759.708 2.117v.703h-3.595q.1.49.424.77.33.28.846.28.863 0 1.347-.605l.824.979q-.34.467-.956.742-.621.28-1.336.28m-.203-4.628q-.797 0-.946 1.05h1.825v-.138q.011-.434-.22-.676-.23-.236-.66-.236m3.342-1.292h1.698l.06.682q.6-.786 1.655-.786.907 0 1.358.538.45.545.462 1.633v3.743h-1.814v-3.666q0-.44-.176-.649-.176-.203-.643-.203-.533 0-.792.418v4.1h-1.808zm6.535-1.44h1.809v1.44h.956v1.26h-.956v2.655q0 .33.115.456.121.132.467.132.27 0 .451-.033v1.292q-.489.16-1.017.16-.934 0-1.38-.446-.445-.44-.445-1.336V98.4h-.742v-1.26h.742zm10.329 5.172q0-.412-.297-.643-.291-.23-1.028-.478-.731-.247-1.198-.478-1.523-.748-1.523-2.05 0-.649.38-1.144.379-.5 1.071-.775.693-.275 1.556-.275.846 0 1.511.297.671.303 1.04.858.368.555.368 1.27h-1.875q0-.479-.297-.743-.29-.263-.791-.263-.5 0-.797.225-.291.22-.291.566 0 .302.324.544.319.242 1.132.506.808.258 1.33.56 1.265.732 1.265 2.012 0 1.028-.77 1.611-.775.588-2.122.588-.95 0-1.72-.34-.77-.341-1.16-.935t-.39-1.369h1.89q0 .627.325.93.324.296 1.055.296.468 0 .737-.203.275-.204.275-.567m4.166-3.732.918 3.276.968-3.276h1.94l-2.37 6.783-.098.247q-.506 1.127-1.787 1.127-.351 0-.742-.11v-1.291h.237q.38 0 .582-.11.198-.11.297-.396l.143-.385-2.017-5.865zm7.333 4.178q0-.231-.237-.369-.241-.143-.917-.29-.682-.15-1.122-.397-.44-.242-.67-.593-.231-.347-.231-.797 0-.803.66-1.32.664-.516 1.73-.516 1.15 0 1.848.522.698.517.698 1.369h-1.814q0-.698-.737-.698-.286 0-.478.153-.192.16-.192.396 0 .242.236.39.236.154.753.248.517.099.913.23 1.308.451 1.308 1.617 0 .797-.71 1.297-.703.5-1.824.5-.748 0-1.33-.27-.589-.269-.913-.73-.33-.462-.33-.973h1.693q.011.401.27.588.253.187.66.187.368 0 .554-.154.182-.148.182-.39m2.891-5.618h1.809v1.44h.956v1.26h-.956v2.655q0 .33.115.456.12.132.467.132.27 0 .45-.033v1.292q-.483.16-1.016.16-.934 0-1.38-.446-.445-.44-.445-1.336V98.4h-.742v-1.26h.742zm6.283 7.36q-1.336 0-2.16-.797-.83-.802-.83-2.078v-.148q0-.89.335-1.572.33-.682.962-1.055.632-.374 1.5-.374 1.226 0 1.935.758.71.759.71 2.117v.703h-3.601q.099.49.429.77.324.28.846.28.858 0 1.341-.605l.825.979q-.335.467-.956.742-.622.28-1.336.28m-.204-4.628q-.791 0-.945 1.05h1.825v-.138q.01-.434-.22-.676-.23-.236-.66-.236m3.392-1.292h1.698l.06.682q.617-.786 1.66-.786 1.1 0 1.485.874.588-.874 1.71-.874 1.764 0 1.813 2.132v3.782h-1.814v-3.666q0-.445-.153-.649-.149-.203-.545-.203-.538 0-.802.478l.005.072v3.968h-1.814v-3.655q0-.456-.142-.66-.149-.203-.556-.203-.522 0-.791.478v4.04h-1.814z"/></svg>