<svg xmlns="http://www.w3.org/2000/svg" version="1.1" xmlns:xlink="http://www.w3.org/1999/xlink" viewBox="0 0 200 200" width="200" height="200"><metadata><rdf:RDF xmlns:rdf="http://www.w3.org/1999/02/22-rdf-syntax-ns#" xmlns:dc="http://purl.org/dc/elements/1.1/"><rdf:Description><dc:creator>RealFaviconGenerator</dc:creator><dc:source>https://realfavicongenerator.net</dc:source></rdf:Description></rdf:RDF></metadata><rect width="200" height="200" fill="url('#gradient')"></rect><defs><linearGradient id="gradient" gradientTransform="rotate(45 0.5 0.5)"><stop offset="0%" stop-color="#ffffff"></stop><stop offset="100%" stop-color="#ffffff"></stop></linearGradient></defs><g><g fill="#000000" transform="matrix(0.5496714484035169,0,0,0.5496714484035169,12.409268233302782,102.95019879072366)" stroke="#ffffff" stroke-width="0"><path d="M4.50-14.22L4.50-2.64L10.47-2.64L10.47 0L1.07 0L1.07-14.22L4.50-14.22ZM11.36-4.82L11.35-5.38Q11.35-6.96 11.96-8.20Q12.58-9.43 13.73-10.10Q14.88-10.76 16.44-10.76L16.44-10.76Q18.81-10.76 20.18-9.29Q21.54-7.82 21.54-5.29L21.54-5.29L21.54-5.18Q21.54-2.71 20.17-1.25Q18.80 0.20 16.46 0.20L16.46 0.20Q14.20 0.20 12.83-1.16Q11.46-2.51 11.36-4.82L11.36-4.82ZM14.65-5.77L14.64-5.18Q14.64-3.71 15.10-3.03Q15.56-2.34 16.46-2.34L16.46-2.34Q18.21-2.34 18.25-5.05L18.25-5.05L18.25-5.38Q18.25-8.22 16.44-8.22L16.44-8.22Q14.79-8.22 14.65-5.77L14.65-5.77ZM27.46-2.34L27.46-2.34Q28.15-2.34 28.54-2.72Q28.92-3.10 28.91-3.77L28.91-3.77L31.99-3.77Q31.99-2.03 30.75-0.92Q29.50 0.20 27.54 0.20L27.54 0.20Q25.23 0.20 23.91-1.25Q22.58-2.70 22.58-5.25L22.58-5.25L22.58-5.39Q22.58-6.99 23.17-8.22Q23.76-9.44 24.87-10.10Q25.99-10.76 27.51-10.76L27.51-10.76Q29.57-10.76 30.78-9.62Q31.99-8.48 31.99-6.52L31.99-6.52L28.91-6.52Q28.91-7.34 28.51-7.78Q28.11-8.22 27.43-8.22L27.43-8.22Q26.15-8.22 25.94-6.59L25.94-6.59Q25.87-6.07 25.87-5.17L25.87-5.17Q25.87-3.57 26.25-2.96Q26.63-2.34 27.46-2.34ZM42.63 0L39.34 0Q39.16-0.32 39.02-0.95L39.02-0.95Q38.12 0.20 36.48 0.20L36.48 0.20Q34.99 0.20 33.95-0.71Q32.90-1.61 32.90-2.98L32.90-2.98Q32.90-4.70 34.17-5.58Q35.44-6.46 37.86-6.46L37.86-6.46L38.88-6.46L38.88-7.01Q38.88-8.47 37.62-8.47L37.62-8.47Q36.45-8.47 36.45-7.31L36.45-7.31L33.15-7.31Q33.15-8.85 34.46-9.80Q35.76-10.76 37.78-10.76Q39.80-10.76 40.98-9.78Q42.15-8.79 42.18-7.07L42.18-7.07L42.18-2.39Q42.20-0.94 42.63-0.17L42.63-0.17L42.63 0ZM37.28-2.15L37.28-2.15Q37.89-2.15 38.30-2.41Q38.70-2.68 38.88-3.01L38.88-3.01L38.88-4.70L37.92-4.70Q36.20-4.70 36.20-3.15L36.20-3.15Q36.20-2.71 36.50-2.43Q36.81-2.15 37.28-2.15ZM47.47-15L47.47 0L44.17 0L44.17-15L47.47-15ZM61.96-3.78L61.96-3.78Q61.96-4.53 61.43-4.95Q60.90-5.37 59.56-5.82Q58.22-6.27 57.37-6.69L57.37-6.69Q54.61-8.05 54.61-10.42L54.61-10.42Q54.61-11.60 55.30-12.50Q55.99-13.41 57.25-13.91Q58.51-14.41 60.08-14.41L60.08-14.41Q61.61-14.41 62.83-13.87Q64.04-13.32 64.72-12.31Q65.39-11.30 65.39-10L65.39-10L61.97-10Q61.97-10.87 61.44-11.35Q60.91-11.83 60-11.83L60-11.83Q59.08-11.83 58.55-11.42Q58.02-11.02 58.02-10.39L58.02-10.39Q58.02-9.84 58.60-9.40Q59.19-8.96 60.66-8.48Q62.14-8.01 63.09-7.46L63.09-7.46Q65.39-6.13 65.39-3.80L65.39-3.80Q65.39-1.93 63.98-0.87Q62.58 0.20 60.13 0.20L60.13 0.20Q58.40 0.20 57.00-0.42Q55.60-1.04 54.89-2.12Q54.18-3.20 54.18-4.61L54.18-4.61L57.62-4.61Q57.62-3.47 58.21-2.92Q58.80-2.38 60.13-2.38L60.13-2.38Q60.98-2.38 61.47-2.75Q61.96-3.12 61.96-3.78ZM72.11 0.20L72.11 0.20Q69.68 0.20 68.17-1.25Q66.67-2.71 66.67-5.03L66.67-5.03L66.67-5.30Q66.67-6.92 67.27-8.16Q67.87-9.40 69.02-10.08Q70.18-10.76 71.76-10.76L71.76-10.76Q73.98-10.76 75.27-9.38Q76.56-8.00 76.56-5.53L76.56-5.53L76.56-4.25L70.02-4.25Q70.20-3.36 70.79-2.85Q71.39-2.34 72.33-2.34L72.33-2.34Q73.90-2.34 74.78-3.44L74.78-3.44L76.28-1.66Q75.66-0.81 74.54-0.31Q73.41 0.20 72.11 0.20ZM71.74-8.22L71.74-8.22Q70.29-8.22 70.02-6.31L70.02-6.31L73.34-6.31L73.34-6.56Q73.36-7.35 72.94-7.79Q72.52-8.22 71.74-8.22ZM84.34-10.64L84.28-7.59L83.19-7.67Q81.64-7.67 81.20-6.69L81.20-6.69L81.20 0L77.91 0L77.91-10.57L81.00-10.57L81.10-9.21Q81.93-10.76 83.42-10.76L83.42-10.76Q83.95-10.76 84.34-10.64L84.34-10.64ZM88.21-10.57L89.85-3.92L91.52-10.57L94.99-10.57L91.54 0L88.18 0L84.74-10.57L88.21-10.57ZM99.44-10.57L99.44 0L96.14 0L96.14-10.57L99.44-10.57ZM95.95-13.29L95.95-13.29Q95.95-13.99 96.46-14.44Q96.96-14.89 97.77-14.89Q98.58-14.89 99.09-14.44Q99.60-13.99 99.60-13.29Q99.60-12.59 99.09-12.14Q98.58-11.69 97.77-11.69Q96.96-11.69 96.46-12.14Q95.95-12.59 95.95-13.29ZM105.94-2.34L105.94-2.34Q106.63-2.34 107.01-2.72Q107.39-3.10 107.38-3.77L107.38-3.77L110.47-3.77Q110.47-2.03 109.22-0.92Q107.98 0.20 106.02 0.20L106.02 0.20Q103.71 0.20 102.38-1.25Q101.05-2.70 101.05-5.25L101.05-5.25L101.05-5.39Q101.05-6.99 101.65-8.22Q102.24-9.44 103.35-10.10Q104.46-10.76 105.99-10.76L105.99-10.76Q108.05-10.76 109.26-9.62Q110.47-8.48 110.47-6.52L110.47-6.52L107.38-6.52Q107.38-7.34 106.98-7.78Q106.58-8.22 105.91-8.22L105.91-8.22Q104.63-8.22 104.41-6.59L104.41-6.59Q104.35-6.07 104.35-5.17L104.35-5.17Q104.35-3.57 104.73-2.96Q105.11-2.34 105.94-2.34ZM116.97 0.20L116.97 0.20Q114.54 0.20 113.04-1.25Q111.53-2.71 111.53-5.03L111.53-5.03L111.53-5.30Q111.53-6.92 112.13-8.16Q112.73-9.40 113.89-10.08Q115.04-10.76 116.62-10.76L116.62-10.76Q118.85-10.76 120.14-9.38Q121.43-8.00 121.43-5.53L121.43-5.53L121.43-4.25L114.88-4.25Q115.06-3.36 115.65-2.85Q116.25-2.34 117.20-2.34L117.20-2.34Q118.76-2.34 119.64-3.44L119.64-3.44L121.14-1.66Q120.53-0.81 119.40-0.31Q118.27 0.20 116.97 0.20ZM116.60-8.22L116.60-8.22Q115.16-8.22 114.88-6.31L114.88-6.31L118.20-6.31L118.20-6.56Q118.22-7.35 117.80-7.79Q117.38-8.22 116.60-8.22ZM127.88-14.22L132.38-14.22L135.56-4.33L138.72-14.22L143.23-14.22L143.23 0L139.79 0L139.79-3.32L140.13-10.12L136.69 0L134.42 0L130.98-10.13L131.31-3.32L131.31 0L127.88 0L127.88-14.22ZM154.50 0L151.21 0Q151.04-0.32 150.90-0.95L150.90-0.95Q149.99 0.20 148.36 0.20L148.36 0.20Q146.87 0.20 145.82-0.71Q144.78-1.61 144.78-2.98L144.78-2.98Q144.78-4.70 146.04-5.58Q147.31-6.46 149.74-6.46L149.74-6.46L150.75-6.46L150.75-7.01Q150.75-8.47 149.49-8.47L149.49-8.47Q148.32-8.47 148.32-7.31L148.32-7.31L145.03-7.31Q145.03-8.85 146.33-9.80Q147.64-10.76 149.66-10.76Q151.68-10.76 152.85-9.78Q154.02-8.79 154.05-7.07L154.05-7.07L154.05-2.39Q154.07-0.94 154.50-0.17L154.50-0.17L154.50 0ZM149.15-2.15L149.15-2.15Q149.77-2.15 150.17-2.41Q150.58-2.68 150.75-3.01L150.75-3.01L150.75-4.70L149.79-4.70Q148.08-4.70 148.08-3.15L148.08-3.15Q148.08-2.71 148.38-2.43Q148.68-2.15 149.15-2.15ZM155.81-10.57L158.90-10.57L159.00-9.33Q160.10-10.76 162.02-10.76L162.02-10.76Q163.67-10.76 164.49-9.78Q165.30-8.79 165.33-6.81L165.33-6.81L165.33 0L162.03 0L162.03-6.67Q162.03-7.47 161.71-7.85Q161.39-8.22 160.54-8.22L160.54-8.22Q159.57-8.22 159.10-7.46L159.10-7.46L159.10 0L155.81 0L155.81-10.57ZM176.40 0L173.11 0Q172.93-0.32 172.79-0.95L172.79-0.95Q171.88 0.20 170.25 0.20L170.25 0.20Q168.76 0.20 167.71-0.71Q166.67-1.61 166.67-2.98L166.67-2.98Q166.67-4.70 167.94-5.58Q169.21-6.46 171.63-6.46L171.63-6.46L172.65-6.46L172.65-7.01Q172.65-8.47 171.39-8.47L171.39-8.47Q170.21-8.47 170.21-7.31L170.21-7.31L166.92-7.31Q166.92-8.85 168.23-9.80Q169.53-10.76 171.55-10.76Q173.57-10.76 174.75-9.78Q175.92-8.79 175.95-7.07L175.95-7.07L175.95-2.39Q175.97-0.94 176.40-0.17L176.40-0.17L176.40 0ZM171.04-2.15L171.04-2.15Q171.66-2.15 172.07-2.41Q172.47-2.68 172.65-3.01L172.65-3.01L172.65-4.70L171.69-4.70Q169.97-4.70 169.97-3.15L169.97-3.15Q169.97-2.71 170.27-2.43Q170.58-2.15 171.04-2.15ZM177.38-5.24L177.38-5.36Q177.38-6.96 177.91-8.19Q178.44-9.42 179.42-10.09Q180.41-10.76 181.72-10.76L181.72-10.76Q183.37-10.76 184.30-9.65L184.30-9.65L184.41-10.57L187.40-10.57L187.40-0.40Q187.40 1.00 186.75 2.03Q186.10 3.06 184.87 3.61Q183.64 4.16 182.02 4.16L182.02 4.16Q180.86 4.16 179.77 3.72Q178.68 3.28 178.11 2.58L178.11 2.58L179.48 0.64Q180.40 1.73 181.90 1.73L181.90 1.73Q184.09 1.73 184.09-0.52L184.09-0.52L184.09-0.85Q183.14 0.20 181.70 0.20L181.70 0.20Q179.77 0.20 178.57-1.28Q177.38-2.76 177.38-5.24L177.38-5.24ZM180.68-5.16L180.68-5.16Q180.68-3.86 181.17-3.10Q181.66-2.34 182.54-2.34L182.54-2.34Q183.60-2.34 184.09-3.06L184.09-3.06L184.09-7.50Q183.61-8.22 182.56-8.22L182.56-8.22Q181.68-8.22 181.18-7.44Q180.68-6.65 180.68-5.16ZM194.38 0.20L194.38 0.20Q191.95 0.20 190.45-1.25Q188.95-2.71 188.95-5.03L188.95-5.03L188.95-5.30Q188.95-6.92 189.55-8.16Q190.15-9.40 191.30-10.08Q192.45-10.76 194.03-10.76L194.03-10.76Q196.26-10.76 197.55-9.38Q198.84-8.00 198.84-5.53L198.84-5.53L198.84-4.25L192.29-4.25Q192.47-3.36 193.07-2.85Q193.66-2.34 194.61-2.34L194.61-2.34Q196.17-2.34 197.05-3.44L197.05-3.44L198.55-1.66Q197.94-0.81 196.81-0.31Q195.68 0.20 194.38 0.20ZM194.01-8.22L194.01-8.22Q192.57-8.22 192.29-6.31L192.29-6.31L195.62-6.31L195.62-6.56Q195.63-7.35 195.21-7.79Q194.79-8.22 194.01-8.22ZM200.19-10.57L203.27-10.57L203.38-9.33Q204.50-10.76 206.40-10.76L206.40-10.76Q208.40-10.76 209.10-9.17L209.10-9.17Q210.18-10.76 212.21-10.76L212.21-10.76Q215.42-10.76 215.51-6.88L215.51-6.88L215.51 0L212.21 0L212.21-6.67Q212.21-7.48 211.93-7.85Q211.66-8.22 210.94-8.22L210.94-8.22Q209.96-8.22 209.48-7.35L209.48-7.35L209.49-7.22L209.49 0L206.19 0L206.19-6.65Q206.19-7.48 205.93-7.85Q205.66-8.22 204.92-8.22L204.92-8.22Q203.97-8.22 203.48-7.35L203.48-7.35L203.48 0L200.19 0L200.19-10.57ZM222.50 0.20L222.50 0.20Q220.07 0.20 218.56-1.25Q217.06-2.71 217.06-5.03L217.06-5.03L217.06-5.30Q217.06-6.92 217.66-8.16Q218.26-9.40 219.41-10.08Q220.57-10.76 222.15-10.76L222.15-10.76Q224.38-10.76 225.66-9.38Q226.95-8.00 226.95-5.53L226.95-5.53L226.95-4.25L220.41-4.25Q220.59-3.36 221.18-2.85Q221.78-2.34 222.72-2.34L222.72-2.34Q224.29-2.34 225.17-3.44L225.17-3.44L226.67-1.66Q226.05-0.81 224.93-0.31Q223.80 0.20 222.50 0.20ZM222.13-8.22L222.13-8.22Q220.68-8.22 220.41-6.31L220.41-6.31L223.73-6.31L223.73-6.56Q223.75-7.35 223.33-7.79Q222.91-8.22 222.13-8.22ZM228.21-10.57L231.30-10.57L231.41-9.33Q232.50-10.76 234.42-10.76L234.42-10.76Q236.07-10.76 236.89-9.78Q237.71-8.79 237.73-6.81L237.73-6.81L237.73 0L234.43 0L234.43-6.67Q234.43-7.47 234.11-7.85Q233.79-8.22 232.94-8.22L232.94-8.22Q231.97-8.22 231.50-7.46L231.50-7.46L231.50 0L228.21 0L228.21-10.57ZM240.10-13.19L243.39-13.19L243.39-10.57L245.13-10.57L245.13-8.28L243.39-8.28L243.39-3.45Q243.39-2.85 243.60-2.62Q243.82-2.38 244.45-2.38L244.45-2.38Q244.94-2.38 245.27-2.44L245.27-2.44L245.27-0.09Q244.38 0.20 243.42 0.20L243.42 0.20Q241.72 0.20 240.91-0.61Q240.10-1.41 240.10-3.04L240.10-3.04L240.10-8.28L238.75-8.28L238.75-10.57L240.10-10.57L240.10-13.19ZM258.89-3.78L258.89-3.78Q258.89-4.53 258.35-4.95Q257.82-5.37 256.48-5.82Q255.15-6.27 254.30-6.69L254.30-6.69Q251.53-8.05 251.53-10.42L251.53-10.42Q251.53-11.60 252.22-12.50Q252.91-13.41 254.17-13.91Q255.43-14.41 257.00-14.41L257.00-14.41Q258.54-14.41 259.75-13.87Q260.97-13.32 261.64-12.31Q262.31-11.30 262.31-10L262.31-10L258.90-10Q258.90-10.87 258.36-11.35Q257.83-11.83 256.92-11.83L256.92-11.83Q256.01-11.83 255.47-11.42Q254.94-11.02 254.94-10.39L254.94-10.39Q254.94-9.84 255.53-9.40Q256.11-8.96 257.59-8.48Q259.06-8.01 260.01-7.46L260.01-7.46Q262.31-6.13 262.31-3.80L262.31-3.80Q262.31-1.93 260.91-0.87Q259.50 0.20 257.05 0.20L257.05 0.20Q255.32 0.20 253.92-0.42Q252.52-1.04 251.81-2.12Q251.10-3.20 251.10-4.61L251.10-4.61L254.54-4.61Q254.54-3.47 255.13-2.92Q255.72-2.38 257.05-2.38L257.05-2.38Q257.90-2.38 258.39-2.75Q258.89-3.12 258.89-3.78ZM266.47-10.57L268.14-4.61L269.90-10.57L273.43-10.57L269.12 1.77L268.94 2.22Q268.02 4.27 265.69 4.27L265.69 4.27Q265.05 4.27 264.34 4.07L264.34 4.07L264.34 1.72L264.77 1.72Q265.46 1.72 265.83 1.52Q266.19 1.32 266.37 0.80L266.37 0.80L266.63 0.10L262.96-10.57L266.47-10.57ZM279.81-2.97L279.81-2.97Q279.81-3.39 279.38-3.64Q278.94-3.90 277.71-4.17Q276.47-4.44 275.67-4.89Q274.87-5.33 274.45-5.97Q274.03-6.60 274.03-7.42L274.03-7.42Q274.03-8.88 275.23-9.82Q276.44-10.76 278.38-10.76L278.38-10.76Q280.47-10.76 281.74-9.81Q283.01-8.87 283.01-7.32L283.01-7.32L279.71-7.32Q279.71-8.59 278.37-8.59L278.37-8.59Q277.85-8.59 277.50-8.31Q277.15-8.02 277.15-7.59L277.15-7.59Q277.15-7.15 277.58-6.88Q278.01-6.60 278.95-6.43Q279.89-6.25 280.61-6.01L280.61-6.01Q282.99-5.19 282.99-3.07L282.99-3.07Q282.99-1.62 281.70-0.71Q280.42 0.20 278.38 0.20L278.38 0.20Q277.02 0.20 275.96-0.29Q274.89-0.78 274.30-1.62Q273.70-2.46 273.70-3.39L273.70-3.39L276.78-3.39Q276.80-2.66 277.27-2.32Q277.73-1.98 278.47-1.98L278.47-1.98Q279.14-1.98 279.48-2.26Q279.81-2.53 279.81-2.97ZM285.07-13.19L288.36-13.19L288.36-10.57L290.10-10.57L290.10-8.28L288.36-8.28L288.36-3.45Q288.36-2.85 288.57-2.62Q288.79-2.38 289.42-2.38L289.42-2.38Q289.91-2.38 290.24-2.44L290.24-2.44L290.24-0.09Q289.36 0.20 288.39 0.20L288.39 0.20Q286.69 0.20 285.88-0.61Q285.07-1.41 285.07-3.04L285.07-3.04L285.07-8.28L283.72-8.28L283.72-10.57L285.07-10.57L285.07-13.19ZM296.50 0.20L296.50 0.20Q294.07 0.20 292.57-1.25Q291.06-2.71 291.06-5.03L291.06-5.03L291.06-5.30Q291.06-6.92 291.67-8.16Q292.27-9.40 293.42-10.08Q294.57-10.76 296.15-10.76L296.15-10.76Q298.38-10.76 299.67-9.38Q300.96-8.00 300.96-5.53L300.96-5.53L300.96-4.25L294.41-4.25Q294.59-3.36 295.19-2.85Q295.78-2.34 296.73-2.34L296.73-2.34Q298.29-2.34 299.17-3.44L299.17-3.44L300.67-1.66Q300.06-0.81 298.93-0.31Q297.80 0.20 296.50 0.20ZM296.13-8.22L296.13-8.22Q294.69-8.22 294.41-6.31L294.41-6.31L297.73-6.31L297.73-6.56Q297.75-7.35 297.33-7.79Q296.91-8.22 296.13-8.22ZM302.30-10.57L305.39-10.57L305.50-9.33Q306.62-10.76 308.52-10.76L308.52-10.76Q310.52-10.76 311.22-9.17L311.22-9.17Q312.29-10.76 314.33-10.76L314.33-10.76Q317.54-10.76 317.63-6.88L317.63-6.88L317.63 0L314.33 0L314.33-6.67Q314.33-7.48 314.05-7.85Q313.78-8.22 313.06-8.22L313.06-8.22Q312.08-8.22 311.60-7.35L311.60-7.35L311.61-7.22L311.61 0L308.31 0L308.31-6.65Q308.31-7.48 308.05-7.85Q307.78-8.22 307.04-8.22L307.04-8.22Q306.09-8.22 305.60-7.35L305.60-7.35L305.60 0L302.30 0L302.30-10.57Z"></path></g></g></svg>